<svg width="60" height="60" viewBox="0 0 60 60" fill="none" xmlns="http://www.w3.org/2000/svg">
<path d="M4.38884 19.4349C3.16707 19.4349 2.13044 19.7954 1.27831 20.5165C0.42619 21.2375 0 22.1027 0 23.1125V38.6172C0 39.6523 0.426062 40.5287 1.27831 41.2498C2.13044 41.9708 3.16707 42.3315 4.38884 42.3315C5.60971 42.3315 6.64005 41.9709 7.47897 41.2498C8.31622 40.5288 8.736 39.6523 8.736 38.6172V23.1125C8.736 22.1026 8.30994 21.2375 7.45769 20.5165C6.60544 19.7954 5.58227 19.4349 4.38884 19.4349Z" fill="white"/>
<path d="M39.6736 5.51635L42.6993 0.793578C42.8979 0.480911 42.8272 0.241148 42.4867 0.0725555C42.1171 -0.0728207 41.8331 0.000843825 41.6346 0.288341L38.5666 5.04887C35.867 4.03894 33.0118 3.53305 30.0009 3.53305C26.9894 3.53305 24.1339 4.03905 21.4353 5.04887L18.3672 0.288341C18.1678 0.000843825 17.8838 -0.0721697 17.5151 0.0725555C17.1738 0.241908 17.1031 0.480911 17.3025 0.793578L20.3283 5.51635C17.2602 6.84025 14.8166 8.68403 12.9985 11.0517C11.1804 13.4207 10.271 16.0095 10.271 18.8226H49.688C49.688 16.0101 48.7784 13.4212 46.9604 11.0517C45.1422 8.68403 42.7127 6.84025 39.6736 5.51635ZM22.1807 12.3857C21.8535 12.6632 21.4627 12.8013 21.0085 12.8013C20.5533 12.8013 20.1704 12.6632 19.8581 12.3857C19.5458 12.1095 19.3896 11.7801 19.3896 11.3944C19.3896 11.0101 19.5458 10.68 19.8581 10.4032C20.1704 10.1269 20.5542 9.98884 21.0085 9.98884C21.4627 9.98884 21.8535 10.1269 22.1807 10.4032C22.5072 10.6807 22.6712 11.0101 22.6712 11.3944C22.6703 11.7795 22.5064 12.1095 22.1807 12.3857ZM40.142 12.3857C39.829 12.6632 39.4453 12.8013 38.9918 12.8013C38.5365 12.8013 38.1458 12.6632 37.8193 12.3857C37.4922 12.1095 37.329 11.7801 37.329 11.3944C37.329 11.0101 37.4922 10.68 37.8193 10.4032C38.1458 10.1269 38.5365 9.98884 38.9918 9.98884C39.4461 9.98884 39.8289 10.1269 40.142 10.4032C40.4546 10.6807 40.6105 11.0101 40.6105 11.3944C40.6105 11.7795 40.4545 12.1095 40.142 12.3857Z" fill="white"/>
<path d="M10.4402 44.134C10.4402 45.2408 10.8945 46.1777 11.8032 46.9466C12.7126 47.7155 13.8199 48.0998 15.1271 48.0998H18.2807L18.3239 56.2858C18.3239 57.3195 18.7499 58.1973 19.6021 58.9184C20.4542 59.6396 21.4775 60.0001 22.6701 60.0001C23.8911 60.0001 24.9284 59.6396 25.7807 58.9184C26.6329 58.1973 27.059 57.3196 27.059 56.2858V48.1006H32.9395V56.2858C32.9395 57.3195 33.3654 58.1973 34.2177 58.9184C35.0699 59.6396 36.1063 60.0001 37.3282 60.0001C38.5492 60.0001 39.5865 59.6396 40.4387 58.9184C41.291 58.1973 41.7169 57.3196 41.7169 56.2858V48.1006H44.9131C46.1912 48.1006 47.2843 47.7161 48.1946 46.9473C49.1032 46.1784 49.5577 45.2415 49.5577 44.1348V20.1194H10.4402V44.134Z" fill="white"/>
<path d="M55.6112 19.4349C54.4177 19.4349 53.3953 19.7901 52.543 20.4986C51.6909 21.2083 51.2648 22.0801 51.2648 23.1125V38.6172C51.2648 39.6523 51.6908 40.5287 52.543 41.2498C53.3953 41.9709 54.4184 42.3315 55.6112 42.3315C56.8322 42.3315 57.8695 41.9709 58.7218 41.2498C59.574 40.5287 59.9999 39.6523 59.9999 38.6172V23.1125C59.9999 22.08 59.574 21.2083 58.7218 20.4986C57.8695 19.7901 56.8322 19.4349 55.6112 19.4349Z" fill="white"/>
</svg>
