<svg width="50" height="50" viewBox="0 0 50 50" fill="none" xmlns="http://www.w3.org/2000/svg">
<path d="M39.5834 8.33333H10.4167C8.75914 8.33333 7.16943 8.99181 5.99733 10.1639C4.82523 11.336 4.16675 12.9257 4.16675 14.5833V35.4167C4.16675 37.0743 4.82523 38.664 5.99733 39.8361C7.16943 41.0082 8.75914 41.6667 10.4167 41.6667H39.5834C41.241 41.6667 42.8307 41.0082 44.0028 39.8361C45.1749 38.664 45.8334 37.0743 45.8334 35.4167V14.5833C45.8334 12.9257 45.1749 11.336 44.0028 10.1639C42.8307 8.99181 41.241 8.33333 39.5834 8.33333ZM39.5834 12.5L26.0417 21.8125C25.725 21.9953 25.3658 22.0916 25.0001 22.0916C24.6344 22.0916 24.2751 21.9953 23.9584 21.8125L10.4167 12.5H39.5834Z" fill="#D0BCFF"/>
</svg>
