<svg width="43" height="43" viewBox="0 0 43 43" fill="none" xmlns="http://www.w3.org/2000/svg">
<path d="M21.2375 29.7875C25.9594 29.7875 29.7875 25.9594 29.7875 21.2375C29.7875 16.5155 25.9594 12.6875 21.2375 12.6875C16.5155 12.6875 12.6875 16.5155 12.6875 21.2375C12.6875 25.9594 16.5155 29.7875 21.2375 29.7875Z" stroke="#D0BCFF" stroke-width="3.20625" stroke-linecap="round" stroke-linejoin="round"/>
<path d="M2 29.7875V12.6875C2 6.78496 6.78496 2 12.6875 2H29.7875C35.69 2 40.475 6.78496 40.475 12.6875V29.7875C40.475 35.69 35.69 40.475 29.7875 40.475H12.6875C6.78496 40.475 2 35.69 2 29.7875Z" stroke="#D0BCFF" stroke-width="3.20625"/>
<path d="M32.9937 9.50275L33.015 9.479" stroke="#D0BCFF" stroke-width="3.20625" stroke-linecap="round" stroke-linejoin="round"/>
</svg>
