<svg width="50" height="50" viewBox="0 0 50 50" fill="none" xmlns="http://www.w3.org/2000/svg">
<path d="M31.5626 17.5C29.9659 17.4945 28.3837 17.804 26.9066 18.4106C25.4296 19.0172 24.0866 19.9091 22.9546 21.0353C21.8227 22.1615 20.9238 23.4998 20.3096 24.9738C19.6954 26.4477 19.3779 28.0282 19.3751 29.625V41.875C19.3751 42.3723 19.5727 42.8492 19.9243 43.2008C20.2759 43.5525 20.7528 43.75 21.2501 43.75H25.6251C26.1224 43.75 26.5993 43.5525 26.9509 43.2008C27.3026 42.8492 27.5001 42.3723 27.5001 41.875V29.625C27.4997 29.0571 27.619 28.4955 27.8502 27.9767C28.0814 27.458 28.4193 26.9938 28.8419 26.6145C29.2645 26.2351 29.7624 25.9491 30.3029 25.775C30.8435 25.6009 31.4147 25.5427 31.9793 25.6042C32.9918 25.7317 33.9223 26.2264 34.5943 26.9944C35.2663 27.7624 35.6331 28.7504 35.6251 29.7708V41.875C35.6251 42.3723 35.8227 42.8492 36.1743 43.2008C36.5259 43.5525 37.0028 43.75 37.5001 43.75H41.8751C42.3724 43.75 42.8493 43.5525 43.2009 43.2008C43.5526 42.8492 43.7501 42.3723 43.7501 41.875V29.625C43.7474 28.0282 43.4298 26.4477 42.8156 24.9738C42.2014 23.4998 41.3026 22.1615 40.1706 21.0353C39.0386 19.9091 37.6957 19.0172 36.2186 18.4106C34.7416 17.804 33.1594 17.4945 31.5626 17.5Z" fill="#D0BCFF"/>
<path d="M13.75 19.375H8.125C7.08947 19.375 6.25 20.2145 6.25 21.25V41.875C6.25 42.9105 7.08947 43.75 8.125 43.75H13.75C14.7855 43.75 15.625 42.9105 15.625 41.875V21.25C15.625 20.2145 14.7855 19.375 13.75 19.375Z" fill="#D0BCFF"/>
<path d="M10.9375 15.625C13.5263 15.625 15.625 13.5263 15.625 10.9375C15.625 8.34866 13.5263 6.25 10.9375 6.25C8.34866 6.25 6.25 8.34866 6.25 10.9375C6.25 13.5263 8.34866 15.625 10.9375 15.625Z" fill="#D0BCFF"/>
</svg>
