<svg width="50" height="50" viewBox="0 0 50 50" fill="none" xmlns="http://www.w3.org/2000/svg">
<path d="M34.8174 46.4997C27.1776 46.4897 19.8535 43.4444 14.4513 38.0315C9.04919 32.6187 6.0099 25.2801 6 17.6251C6 15.3376 6.90689 13.1439 8.52116 11.5264C10.1354 9.9089 12.3249 9.00021 14.6078 9.00021C15.0912 8.99652 15.5738 9.04049 16.0486 9.13146C16.5077 9.19952 16.959 9.31256 17.396 9.46896C17.7033 9.57701 17.9772 9.76358 18.1905 10.0102C18.4038 10.2568 18.5492 10.555 18.6123 10.8752L21.1759 22.125C21.245 22.4304 21.2367 22.7482 21.1517 23.0495C21.0667 23.3509 20.9078 23.626 20.6894 23.85C20.4461 24.1125 20.4274 24.1312 18.1257 25.3312C19.9689 29.3828 23.2028 32.6364 27.2388 34.4998C28.4551 32.1749 28.4738 32.1561 28.7358 31.9124C28.9593 31.6936 29.2339 31.5343 29.5346 31.4491C29.8354 31.364 30.1526 31.3556 30.4573 31.4249L41.6849 33.9936C41.9942 34.0655 42.2802 34.2151 42.5159 34.4283C42.7516 34.6415 42.9293 34.9113 43.0322 35.2123C43.1901 35.6574 43.3091 36.1153 43.3877 36.5811C43.463 37.0523 43.5006 37.5288 43.5 38.006C43.4655 40.2837 42.5331 42.4552 40.9064 44.0465C39.2797 45.6379 37.0907 46.5197 34.8174 46.4997Z" fill="#D0BCFF"/>
</svg>
