<svg xmlns="http://www.w3.org/2000/svg" xmlns:xlink="http://www.w3.org/1999/xlink" viewBox="0,0,256,256" width="96px" height="96px" fill-rule="nonzero"><g fill="#ffffff" fill-rule="nonzero" stroke="none" stroke-width="1" stroke-linecap="butt" stroke-linejoin="miter" stroke-miterlimit="10" stroke-dasharray="" stroke-dashoffset="0" font-family="none" font-weight="none" font-size="none" text-anchor="none" style="mix-blend-mode: normal"><g transform="scale(5.33333,5.33333)"><path d="M47.776,8.156c-0.13,-0.107 -0.296,-0.163 -0.465,-0.156c-0.463,0 -1.062,0.314 -1.385,0.483l-0.128,0.065c-0.541,0.262 -1.13,0.41 -1.73,0.435c-0.615,0.02 -1.146,0.056 -1.836,0.128c-4.091,0.421 -5.916,3.556 -7.674,6.589c-0.957,1.65 -1.946,3.363 -3.301,4.672c-0.28,0.272 -0.578,0.525 -0.892,0.758c-1.402,1.042 -3.163,1.787 -4.533,2.314c-1.319,0.504 -2.759,0.957 -4.15,1.396c-1.275,0.401 -2.478,0.781 -3.584,1.191c-0.499,0.185 -0.923,0.327 -1.298,0.452c-1.008,0.327 -1.735,0.578 -2.797,1.309c-0.414,0.283 -0.83,0.589 -1.111,0.818c-0.843,0.673 -1.589,1.459 -2.217,2.335c-0.54,0.809 -1.164,1.558 -1.862,2.235c-0.224,0.219 -0.622,0.327 -1.218,0.327c-0.696,0.002 -2.611,-0.507 -3.896,-0.507c-1.712,0 -3.491,0.627 -3.699,1c0,0 2.911,1.894 3.014,1.996c-0.111,0.164 -1.818,2.503 -2.002,3.011c2.494,0.063 3.956,-0.306 5.356,-0.983c0.406,-0.196 0.818,-0.398 1.309,-0.605c0.818,-0.355 1.699,-0.921 2.633,-1.52c1.222,-0.797 2.501,-1.615 3.741,-2.01c1.019,-0.311 2.081,-0.46 3.147,-0.442c1.309,0 2.687,0.175 4.016,0.345c0.99,0.128 2.78,0.148 3.786,0.208c0.269,0.016 1.84,0.034 2.946,0.027c-1.188,2.615 -2.946,4.973 -2.946,4.973c0,0 6,0 8.548,-5.781c0.034,-0.067 0.063,-0.136 0.096,-0.203c1.58,-0.377 5.63,-2.513 6.706,-8.405c0.504,-1.712 0.874,-3.412 1.2,-4.909c0.389,-1.8 0.725,-3.343 1.109,-3.942c0.604,-0.939 1.525,-1.574 2.417,-2.191c0.121,-0.083 0.244,-0.164 0.363,-0.252c1.121,-0.787 2.235,-1.695 2.481,-3.389v-0.039c0.178,-1.263 0.028,-1.586 -0.144,-1.733z"></path></g></g></svg>